<svg version="1.1" viewBox="0.0 0.0 600.0 371.0" fill="none" stroke="none" stroke-linecap="square" stroke-miterlimit="10" width="600" height="371" xmlns:xlink="http://www.w3.org/1999/xlink" xmlns="http://www.w3.org/2000/svg"><path fill="#ffffff" d="M0 0L600.0 0L600.0 371.0L0 371.0L0 0Z" fill-rule="nonzero"/><path stroke="#333333" stroke-width="1.0" stroke-linecap="butt" d="M91.5 300.5L581.5 300.5" fill-rule="nonzero"/><path stroke="#cccccc" stroke-width="1.0" stroke-linecap="butt" d="M91.5 231.5L581.5 231.5" fill-rule="nonzero"/><path stroke="#cccccc" stroke-width="1.0" stroke-linecap="butt" d="M91.5 163.5L581.5 163.5" fill-rule="nonzero"/><path stroke="#cccccc" stroke-width="1.0" stroke-linecap="butt" d="M91.5 94.5L581.5 94.5" fill-rule="nonzero"/><path stroke="#cccccc" stroke-width="1.0" stroke-linecap="butt" d="M91.5 25.5L581.5 25.5" fill-rule="nonzero"/><clipPath id="id_0"><path d="M91.55 25.55L581.45 25.55L581.45 300.45L91.55 300.45L91.55 25.55Z" clip-rule="nonzero"/></clipPath><path stroke="#000000" stroke-width="2.0" stroke-linecap="butt" stroke-opacity="0.0" clip-path="url(#id_0)" d="M238.0 300.0L143.0 300.0L143.0 58.0C143.0 56.89543 143.89543 56.0 145.0 56.0L236.0 56.0C237.10457 56.0 238.0 56.89543 238.0 58.0Z" fill-rule="nonzero"/><path fill="#4285f4" clip-path="url(#id_0)" d="M238.0 300.0L143.0 300.0L143.0 58.0C143.0 56.89543 143.89543 56.0 145.0 56.0L236.0 56.0C237.10457 56.0 238.0 56.89543 238.0 58.0Z" fill-rule="nonzero"/><path stroke="#000000" stroke-width="2.0" stroke-linecap="butt" stroke-opacity="0.0" clip-path="url(#id_0)" d="M385.0 300.0L290.0 300.0L290.0 183.0C290.0 181.89543 290.89542 181.0 292.0 181.0L383.0 181.0C384.10458 181.0 385.0 181.89543 385.0 183.0Z" fill-rule="nonzero"/><path fill="#4285f4" clip-path="url(#id_0)" d="M385.0 300.0L290.0 300.0L290.0 183.0C290.0 181.89543 290.89542 181.0 292.0 181.0L383.0 181.0C384.10458 181.0 385.0 181.89543 385.0 183.0Z" fill-rule="nonzero"/><path stroke="#000000" stroke-width="2.0" stroke-linecap="butt" stroke-opacity="0.0" clip-path="url(#id_0)" d="M531.0 300.0L436.0 300.0L436.0 205.0C436.0 203.89543 436.89542 203.0 438.0 203.0L529.0 203.0C530.10455 203.0 531.0 203.89543 531.0 205.0Z" fill-rule="nonzero"/><path fill="#4285f4" clip-path="url(#id_0)" d="M531.0 300.0L436.0 300.0L436.0 205.0C436.0 203.89543 436.89542 203.0 438.0 203.0L529.0 203.0C530.10455 203.0 531.0 203.89543 531.0 205.0Z" fill-rule="nonzero"/><path fill="#000000" d="M285.76562 349.45L285.76562 340.85626L286.82812 340.85626L286.82812 349.45L285.76562 349.45ZM288.79688 342.075L288.79688 340.85626L289.85938 340.85626L289.85938 342.075L288.79688 342.075ZM288.79688 349.45L288.79688 343.23126L289.85938 343.23126L289.85938 349.45L288.79688 349.45ZM295.85938 347.16876L296.89062 347.3094Q296.71875 348.3719 296.01562 348.98126Q295.3125 349.59064 294.29688 349.59064Q293.01562 349.59064 292.23438 348.7625Q291.46875 347.91876 291.46875 346.35626Q291.46875 345.35626 291.79688 344.60626Q292.14062 343.84064 292.8125 343.46564Q293.5 343.09064 294.3125 343.09064Q295.3125 343.09064 295.95312 343.60626Q296.60938 344.10626 296.79688 345.0594L295.76562 345.21564Q295.625 344.59064 295.25 344.27814Q294.875 343.95 294.34375 343.95Q293.54688 343.95 293.04688 344.52814Q292.54688 345.09064 292.54688 346.325Q292.54688 347.59064 293.03125 348.15314Q293.51562 348.71564 294.28125 348.71564Q294.90625 348.71564 295.3125 348.34064Q295.73438 347.96564 295.85938 347.16876ZM297.23438 349.45L297.23438 348.59064L301.20312 344.04376Q300.51562 344.075 300.0 344.075L297.46875 344.075L297.46875 343.23126L302.5625 343.23126L302.5625 343.91876L299.1875 347.8719L298.53125 348.59064Q299.25 348.54376 299.85938 348.54376L302.75 348.54376L302.75 349.45L297.23438 349.45ZM303.76562 349.45L302.78125 349.45L302.78125 340.85626L303.84375 340.85626L303.84375 343.91876Q304.51562 343.09064 305.54688 343.09064Q306.125 343.09064 306.625 343.325Q307.14062 343.54376 307.46875 343.96564Q307.8125 344.3875 308.0 344.98126Q308.1875 345.575 308.1875 346.2469Q308.1875 347.84064 307.39062 348.71564Q306.59375 349.59064 305.5 349.59064Q304.39062 349.59064 303.76562 348.66876L303.76562 349.45ZM303.75 346.29376Q303.75 347.40314 304.0625 347.90314Q304.5625 348.71564 305.40625 348.71564Q306.09375 348.71564 306.59375 348.1219Q307.10938 347.52814 307.10938 346.325Q307.10938 345.10626 306.625 344.52814Q306.14062 343.95 305.45312 343.95Q304.76562 343.95 304.25 344.5594Q303.75 345.15314 303.75 346.29376ZM313.85938 348.6844Q313.26562 349.1844 312.71875 349.3875Q312.1875 349.59064 311.5625 349.59064Q310.53125 349.59064 309.98438 349.09064Q309.4375 348.59064 309.4375 347.8094Q309.4375 347.35626 309.64062 346.98126Q309.84375 346.59064 310.1875 346.3719Q310.53125 346.1375 310.95312 346.02814Q311.25 345.9344 311.89062 345.85626Q313.15625 345.71564 313.76562 345.4969Q313.76562 345.27814 313.76562 345.23126Q313.76562 344.575 313.46875 344.3094Q313.0625 343.96564 312.26562 343.96564Q311.53125 343.96564 311.17188 344.23126Q310.8125 344.48126 310.64062 345.1375L309.60938 344.9969Q309.75 344.34064 310.07812 343.9344Q310.40625 343.52814 311.01562 343.3094Q311.625 343.09064 312.42188 343.09064Q313.21875 343.09064 313.71875 343.27814Q314.21875 343.46564 314.45312 343.7469Q314.6875 344.02814 314.78125 344.46564Q314.82812 344.73126 314.82812 345.4344L314.82812 346.84064Q314.82812 348.3094 314.89062 348.7Q314.96875 349.09064 315.17188 349.45L314.0625 349.45Q313.90625 349.1219 313.85938 348.6844ZM313.76562 346.325Q313.1875 346.5594 312.04688 346.73126Q311.39062 346.825 311.125 346.95Q310.85938 347.0594 310.70312 347.27814Q310.5625 347.4969 310.5625 347.77814Q310.5625 348.2 310.875 348.48126Q311.20312 348.7625 311.8125 348.7625Q312.42188 348.7625 312.89062 348.4969Q313.375 348.23126 313.59375 347.7625Q313.76562 347.40314 313.76562 346.71564L313.76562 346.325ZM324.04688 347.45L325.14062 347.575Q324.89062 348.52814 324.1875 349.0594Q323.48438 349.59064 322.40625 349.59064Q321.04688 349.59064 320.23438 348.7469Q319.4375 347.90314 319.4375 346.3875Q319.4375 344.825 320.25 343.96564Q321.0625 343.09064 322.34375 343.09064Q323.59375 343.09064 324.375 343.9344Q325.17188 344.77814 325.17188 346.325Q325.17188 346.41876 325.17188 346.60626L320.53125 346.60626Q320.59375 347.6375 321.10938 348.1844Q321.625 348.71564 322.40625 348.71564Q322.98438 348.71564 323.39062 348.41876Q323.8125 348.10626 324.04688 347.45ZM320.59375 345.7469L324.0625 345.7469Q324.0 344.95 323.67188 344.5594Q323.15625 343.95 322.35938 343.95Q321.625 343.95 321.125 344.4344Q320.64062 344.91876 320.59375 345.7469ZM326.59375 349.96564L327.625 350.1219Q327.6875 350.59064 327.98438 350.8094Q328.375 351.10626 329.04688 351.10626Q329.78125 351.10626 330.17188 350.8094Q330.57812 350.5125 330.71875 349.9969Q330.8125 349.66876 330.79688 348.6375Q330.10938 349.45 329.07812 349.45Q327.79688 349.45 327.09375 348.52814Q326.39062 347.59064 326.39062 346.3094Q326.39062 345.41876 326.70312 344.66876Q327.03125 343.90314 327.64062 343.4969Q328.25 343.09064 329.07812 343.09064Q330.1875 343.09064 330.90625 343.98126L330.90625 343.23126L331.875 343.23126L331.875 348.60626Q331.875 350.0594 331.57812 350.66876Q331.28125 351.27814 330.64062 351.6219Q330.0 351.98126 329.0625 351.98126Q327.95312 351.98126 327.26562 351.48126Q326.57812 350.98126 326.59375 349.96564ZM327.46875 346.23126Q327.46875 347.45 327.95312 348.0125Q328.4375 348.575 329.17188 348.575Q329.90625 348.575 330.39062 348.0125Q330.89062 347.45 330.89062 346.2625Q330.89062 345.1219 330.375 344.54376Q329.875 343.96564 329.15625 343.96564Q328.45312 343.96564 327.95312 344.54376Q327.46875 345.10626 327.46875 346.23126ZM333.23438 349.45L333.23438 348.59064L337.20312 344.04376Q336.51562 344.075 336.0 344.075L333.46875 344.075L333.46875 343.23126L338.5625 343.23126L338.5625 343.91876L335.1875 347.8719L334.53125 348.59064Q335.25 348.54376 335.85938 348.54376L338.75 348.54376L338.75 349.45L333.23438 349.45ZM343.04688 347.45L344.14062 347.575Q343.89062 348.52814 343.1875 349.0594Q342.48438 349.59064 341.40625 349.59064Q340.04688 349.59064 339.23438 348.7469Q338.4375 347.90314 338.4375 346.3875Q338.4375 344.825 339.25 343.96564Q340.0625 343.09064 341.34375 343.09064Q342.59375 343.09064 343.375 343.9344Q344.17188 344.77814 344.17188 346.325Q344.17188 346.41876 344.17188 346.60626L339.53125 346.60626Q339.59375 347.6375 340.10938 348.1844Q340.625 348.71564 341.40625 348.71564Q341.98438 348.71564 342.39062 348.41876Q342.8125 348.10626 343.04688 347.45ZM339.59375 345.7469L343.0625 345.7469Q343.0 344.95 342.67188 344.5594Q342.15625 343.95 341.35938 343.95Q340.625 343.95 340.125 344.4344Q339.64062 344.91876 339.59375 345.7469ZM345.79688 349.45L345.79688 340.85626L346.85938 340.85626L346.85938 345.7625L349.34375 343.23126L350.71875 343.23126L348.32812 345.52814L350.95312 349.45L349.65625 349.45L347.59375 346.2625L346.85938 346.98126L346.85938 349.45L345.79688 349.45ZM355.875 349.45L355.875 348.52814Q355.14062 349.59064 353.89062 349.59064Q353.34375 349.59064 352.85938 349.3875Q352.39062 349.16876 352.15625 348.85626Q351.92188 348.52814 351.82812 348.0594Q351.76562 347.7625 351.76562 347.075L351.76562 343.23126L352.82812 343.23126L352.82812 346.6844Q352.82812 347.4969 352.89062 347.79376Q352.98438 348.2 353.29688 348.45Q353.625 348.6844 354.10938 348.6844Q354.57812 348.6844 354.98438 348.45Q355.40625 348.2 355.57812 347.77814Q355.76562 347.35626 355.76562 346.5594L355.76562 343.23126L356.8125 343.23126L356.8125 349.45L355.875 349.45ZM361.09375 348.5125L361.25 349.4344Q360.79688 349.52814 360.45312 349.52814Q359.875 349.52814 359.5625 349.35626Q359.25 349.16876 359.10938 348.8719Q358.98438 348.575 358.98438 347.6219L358.98438 344.04376L358.21875 344.04376L358.21875 343.23126L358.98438 343.23126L358.98438 341.6844L360.03125 341.0594L360.03125 343.23126L361.09375 343.23126L361.09375 344.04376L360.03125 344.04376L360.03125 347.6844Q360.03125 348.1375 360.07812 348.2625Q360.14062 348.3875 360.26562 348.46564Q360.39062 348.54376 360.625 348.54376Q360.8125 348.54376 361.09375 348.5125ZM361.40625 346.34064Q361.40625 344.60626 362.35938 343.77814Q363.15625 343.09064 364.3125 343.09064Q365.59375 343.09064 366.40625 343.9344Q367.23438 344.7625 367.23438 346.2469Q367.23438 347.45 366.875 348.1375Q366.51562 348.825 365.8125 349.21564Q365.125 349.59064 364.3125 349.59064Q363.01562 349.59064 362.20312 348.7625Q361.40625 347.91876 361.40625 346.34064ZM362.48438 346.34064Q362.48438 347.52814 363.0 348.1219Q363.53125 348.71564 364.3125 348.71564Q365.10938 348.71564 365.625 348.1219Q366.14062 347.52814 366.14062 346.3094Q366.14062 345.15314 365.60938 344.5594Q365.09375 343.96564 364.3125 343.96564Q363.53125 343.96564 363.0 344.5594Q362.48438 345.1375 362.48438 346.34064ZM368.78125 349.45L368.78125 343.23126L369.73438 343.23126L369.73438 344.16876Q370.09375 343.5125 370.39062 343.3094Q370.70312 343.09064 371.07812 343.09064Q371.60938 343.09064 372.15625 343.41876L371.79688 344.40314Q371.40625 344.16876 371.03125 344.16876Q370.67188 344.16876 370.39062 344.3875Q370.125 344.59064 370.01562 344.96564Q369.82812 345.52814 369.82812 346.1844L369.82812 349.45L368.78125 349.45ZM372.40625 346.34064Q372.40625 344.60626 373.35938 343.77814Q374.15625 343.09064 375.3125 343.09064Q376.59375 343.09064 377.40625 343.9344Q378.23438 344.7625 378.23438 346.2469Q378.23438 347.45 377.875 348.1375Q377.51562 348.825 376.8125 349.21564Q376.125 349.59064 375.3125 349.59064Q374.01562 349.59064 373.20312 348.7625Q372.40625 347.91876 372.40625 346.34064ZM373.48438 346.34064Q373.48438 347.52814 374.0 348.1219Q374.53125 348.71564 375.3125 348.71564Q376.10938 348.71564 376.625 348.1219Q377.14062 347.52814 377.14062 346.3094Q377.14062 345.15314 376.60938 344.5594Q376.09375 343.96564 375.3125 343.96564Q374.53125 343.96564 374.0 344.5594Q373.48438 345.1375 373.48438 346.34064ZM374.73438 342.45L375.51562 340.8094L376.90625 340.8094L375.60938 342.45L374.73438 342.45ZM380.9375 349.45L379.03125 343.23126L380.125 343.23126L381.10938 346.825L381.48438 348.15314Q381.51562 348.0594 381.8125 346.8719L382.79688 343.23126L383.875 343.23126L384.8125 346.84064L385.125 348.02814L385.48438 346.825L386.54688 343.23126L387.57812 343.23126L385.625 349.45L384.53125 349.45L383.54688 345.71564L383.29688 344.66876L382.04688 349.45L380.9375 349.45Z" fill-rule="nonzero"/><path fill="#000000" d="M27.268763 185.14062L27.409388 184.10938Q28.471888 184.28125 29.081263 184.98438Q29.690638 185.6875 29.690638 186.70312Q29.690638 187.98438 28.862513 188.76562Q28.018763 189.53125 26.456263 189.53125Q25.456263 189.53125 24.706263 189.20312Q23.940638 188.85938 23.565638 188.1875Q23.190638 187.5 23.190638 186.6875Q23.190638 185.6875 23.706263 185.04688Q24.206263 184.39062 25.159388 184.20312L25.315638 185.23438Q24.690638 185.375 24.378138 185.75Q24.050013 186.125 24.050013 186.65625Q24.050013 187.45312 24.628138 187.95312Q25.190638 188.45312 26.425013 188.45312Q27.690638 188.45312 28.253138 187.96875Q28.815638 187.48438 28.815638 186.71875Q28.815638 186.09375 28.440638 185.6875Q28.065638 185.26562 27.268763 185.14062ZM29.550013 183.76562L28.690638 183.76562L24.143763 179.79688Q24.175013 180.48438 24.175013 181.0L24.175013 183.53125L23.331263 183.53125L23.331263 178.4375L24.018763 178.4375L27.971888 181.8125L28.690638 182.46875Q28.643763 181.75 28.643763 181.14062L28.643763 178.25L29.550013 178.25L29.550013 183.76562ZM28.784388 174.14062Q29.284388 174.73438 29.487513 175.28125Q29.690638 175.8125 29.690638 176.4375Q29.690638 177.46875 29.190638 178.01562Q28.690638 178.5625 27.909388 178.5625Q27.456263 178.5625 27.081263 178.35938Q26.690638 178.15625 26.471888 177.8125Q26.237513 177.46875 26.128138 177.04688Q26.034388 176.75 25.956263 176.10938Q25.815638 174.84375 25.596888 174.23438Q25.378138 174.23438 25.331263 174.23438Q24.675013 174.23438 24.409388 174.53125Q24.065638 174.9375 24.065638 175.73438Q24.065638 176.46875 24.331263 176.82812Q24.581263 177.1875 25.237513 177.35938L25.096888 178.39062Q24.440638 178.25 24.034388 177.92188Q23.628138 177.59375 23.409388 176.98438Q23.190638 176.375 23.190638 175.57812Q23.190638 174.78125 23.378138 174.28125Q23.565638 173.78125 23.846888 173.54688Q24.128138 173.3125 24.565638 173.21875Q24.831263 173.17188 25.534388 173.17188L26.940638 173.17188Q28.409388 173.17188 28.800013 173.10938Q29.190638 173.03125 29.550013 172.82812L29.550013 173.9375Q29.221888 174.09375 28.784388 174.14062ZM26.425013 174.23438Q26.659388 174.8125 26.831263 175.95312Q26.925013 176.60938 27.050013 176.875Q27.159388 177.14062 27.378138 177.29688Q27.596888 177.4375 27.878138 177.4375Q28.300013 177.4375 28.581263 177.125Q28.862513 176.79688 28.862513 176.1875Q28.862513 175.57812 28.596888 175.10938Q28.331263 174.625 27.862513 174.40625Q27.503138 174.23438 26.815638 174.23438L26.425013 174.23438ZM27.690638 171.625L27.534388 170.59375Q28.159388 170.5 28.487513 170.10938Q28.815638 169.70312 28.815638 168.96875Q28.815638 168.25 28.534388 167.90625Q28.237513 167.54688 27.831263 167.54688Q27.471888 167.54688 27.268763 167.85938Q27.128138 168.07812 26.909388 168.9375Q26.612513 170.09375 26.409388 170.54688Q26.190638 170.98438 25.815638 171.21875Q25.440638 171.45312 24.971888 171.45312Q24.565638 171.45312 24.206263 171.26562Q23.846888 171.07812 23.612513 170.75Q23.440638 170.5 23.315638 170.07812Q23.190638 169.65625 23.190638 169.15625Q23.190638 168.4375 23.409388 167.89062Q23.612513 167.32812 23.971888 167.0625Q24.331263 166.79688 24.925013 166.70312L25.065638 167.73438Q24.596888 167.79688 24.331263 168.14062Q24.050013 168.46875 24.050013 169.09375Q24.050013 169.8125 24.300013 170.125Q24.534388 170.4375 24.862513 170.4375Q25.065638 170.4375 25.221888 170.3125Q25.393763 170.17188 25.503138 169.90625Q25.565638 169.75 25.768763 168.96875Q26.081263 167.84375 26.268763 167.40625Q26.456263 166.96875 26.815638 166.71875Q27.175013 166.46875 27.721888 166.46875Q28.253138 166.46875 28.721888 166.78125Q29.175013 167.07812 29.440638 167.65625Q29.690638 168.23438 29.690638 168.96875Q29.690638 170.1875 29.190638 170.82812Q28.675013 171.45312 27.690638 171.625ZM31.940638 161.1875L20.956263 161.1875L20.956263 158.85938L21.831263 158.85938L21.831263 160.125L31.065638 160.125L31.065638 158.85938L31.940638 158.85938L31.940638 161.1875ZM27.690638 158.625L27.534388 157.59375Q28.159388 157.5 28.487513 157.10938Q28.815638 156.70312 28.815638 155.96875Q28.815638 155.25 28.534388 154.90625Q28.237513 154.54688 27.831263 154.54688Q27.471888 154.54688 27.268763 154.85938Q27.128138 155.07812 26.909388 155.9375Q26.612513 157.09375 26.409388 157.54688Q26.190638 157.98438 25.815638 158.21875Q25.440638 158.45312 24.971888 158.45312Q24.565638 158.45312 24.206263 158.26562Q23.846888 158.07812 23.612513 157.75Q23.440638 157.5 23.315638 157.07812Q23.190638 156.65625 23.190638 156.15625Q23.190638 155.4375 23.409388 154.89062Q23.612513 154.32812 23.971888 154.0625Q24.331263 153.79688 24.925013 153.70312L25.065638 154.73438Q24.596888 154.79688 24.331263 155.14062Q24.050013 155.46875 24.050013 156.09375Q24.050013 156.8125 24.300013 157.125Q24.534388 157.4375 24.862513 157.4375Q25.065638 157.4375 25.221888 157.3125Q25.393763 157.17188 25.503138 156.90625Q25.565638 156.75 25.768763 155.96875Q26.081263 154.84375 26.268763 154.40625Q26.456263 153.96875 26.815638 153.71875Q27.175013 153.46875 27.721888 153.46875Q28.253138 153.46875 28.721888 153.78125Q29.175013 154.07812 29.440638 154.65625Q29.690638 155.23438 29.690638 155.96875Q29.690638 157.1875 29.190638 157.82812Q28.675013 158.45312 27.690638 158.625ZM31.940638 149.4375L31.940638 151.76562L31.065638 151.76562L31.065638 150.5L21.831263 150.5L21.831263 151.76562L20.956263 151.76562L20.956263 149.4375L31.940638 149.4375Z" fill-rule="nonzero"/><path fill="#000000" d="M79.05 300.21564Q79.05 298.6844 79.3625 297.7625Q79.675 296.825 80.28438 296.325Q80.90938 295.825 81.84688 295.825Q82.53438 295.825 83.05 296.10626Q83.58125 296.3875 83.925 296.91876Q84.26875 297.4344 84.45625 298.1844Q84.64375 298.9344 84.64375 300.21564Q84.64375 301.73126 84.33125 302.65314Q84.03438 303.575 83.40938 304.09064Q82.8 304.59064 81.84688 304.59064Q80.6125 304.59064 79.89375 303.7Q79.05 302.6375 79.05 300.21564ZM80.12813 300.21564Q80.12813 302.325 80.62813 303.02814Q81.12813 303.73126 81.84688 303.73126Q82.58125 303.73126 83.06563 303.02814Q83.56563 302.325 83.56563 300.21564Q83.56563 298.09064 83.06563 297.40314Q82.58125 296.7 81.83125 296.7Q81.1125 296.7 80.675 297.3094Q80.12813 298.09064 80.12813 300.21564Z" fill-rule="nonzero"/><path fill="#000000" d="M63.596874 234.70938L63.596874 235.725L57.909374 235.725Q57.909374 235.35 58.034374 234.99063Q58.253124 234.4125 58.721874 233.85Q59.20625 233.2875 60.1125 232.55313Q61.51875 231.39688 62.003124 230.725Q62.503124 230.05313 62.503124 229.45938Q62.503124 228.83438 62.05 228.4125Q61.596874 227.975 60.878124 227.975Q60.1125 227.975 59.659374 228.42813Q59.20625 228.88126 59.190624 229.69376L58.1125 229.58438Q58.221874 228.36563 58.940624 227.74063Q59.675 227.1 60.909374 227.1Q62.14375 227.1 62.8625 227.7875Q63.58125 228.475 63.58125 229.49063Q63.58125 230.00626 63.3625 230.50626Q63.159374 230.99063 62.659374 231.55313Q62.175 232.1 61.05 233.05313Q60.096874 233.85 59.815624 234.14688Q59.55 234.42813 59.378124 234.70938L63.596874 234.70938ZM65.05 233.475L66.15938 233.38126Q66.28438 234.19376 66.72188 234.6Q67.175 235.00626 67.81563 235.00626Q68.56563 235.00626 69.09688 234.42813Q69.62813 233.85 69.62813 232.9125Q69.62813 232.00626 69.1125 231.49063Q68.6125 230.95938 67.78438 230.95938Q67.28438 230.95938 66.8625 231.19376Q66.45625 231.42813 66.22188 231.7875L65.2375 231.6625L66.06563 227.25626L70.34688 227.25626L70.34688 228.25626L66.90938 228.25626L66.45625 230.56876Q67.22188 230.02188 68.06563 230.02188Q69.19063 230.02188 69.95625 230.80313Q70.7375 231.58438 70.7375 232.81876Q70.7375 233.975 70.06563 234.83438Q69.2375 235.86563 67.81563 235.86563Q66.64375 235.86563 65.89375 235.20938Q65.15938 234.55313 65.05 233.475ZM72.05 231.49063Q72.05 229.95938 72.3625 229.0375Q72.675 228.1 73.28438 227.6Q73.90938 227.1 74.84688 227.1Q75.53438 227.1 76.05 227.38126Q76.58125 227.6625 76.925 228.19376Q77.26875 228.70938 77.45625 229.45938Q77.64375 230.20938 77.64375 231.49063Q77.64375 233.00626 77.33125 233.92813Q77.03438 234.85 76.40938 235.36563Q75.8 235.86563 74.84688 235.86563Q73.6125 235.86563 72.89375 234.975Q72.05 233.9125 72.05 231.49063ZM73.12813 231.49063Q73.12813 233.6 73.62813 234.30313Q74.12813 235.00626 74.84688 235.00626Q75.58125 235.00626 76.06563 234.30313Q76.56563 233.6 76.56563 231.49063Q76.56563 229.36563 76.06563 228.67813Q75.58125 227.975 74.83125 227.975Q74.1125 227.975 73.675 228.58438Q73.12813 229.36563 73.12813 231.49063ZM79.05 231.49063Q79.05 229.95938 79.3625 229.0375Q79.675 228.1 80.28438 227.6Q80.90938 227.1 81.84688 227.1Q82.53438 227.1 83.05 227.38126Q83.58125 227.6625 83.925 228.19376Q84.26875 228.70938 84.45625 229.45938Q84.64375 230.20938 84.64375 231.49063Q84.64375 233.00626 84.33125 233.92813Q84.03438 234.85 83.40938 235.36563Q82.8 235.86563 81.84688 235.86563Q80.6125 235.86563 79.89375 234.975Q79.05 233.9125 79.05 231.49063ZM80.12813 231.49063Q80.12813 233.6 80.62813 234.30313Q81.12813 235.00626 81.84688 235.00626Q82.58125 235.00626 83.06563 234.30313Q83.56563 233.6 83.56563 231.49063Q83.56563 229.36563 83.06563 228.67813Q82.58125 227.975 81.83125 227.975Q81.1125 227.975 80.675 228.58438Q80.12813 229.36563 80.12813 231.49063Z" fill-rule="nonzero"/><path fill="#000000" d="M58.05 164.75L59.159374 164.65625Q59.284374 165.46875 59.721874 165.875Q60.175 166.28125 60.815624 166.28125Q61.565624 166.28125 62.096874 165.70312Q62.628124 165.125 62.628124 164.1875Q62.628124 163.28125 62.1125 162.76562Q61.6125 162.23438 60.784374 162.23438Q60.284374 162.23438 59.8625 162.46875Q59.45625 162.70312 59.221874 163.0625L58.2375 162.9375L59.065624 158.53125L63.346874 158.53125L63.346874 159.53125L59.909374 159.53125L59.45625 161.84375Q60.221874 161.29688 61.065624 161.29688Q62.190624 161.29688 62.95625 162.07812Q63.7375 162.85938 63.7375 164.09375Q63.7375 165.25 63.065624 166.10938Q62.2375 167.14062 60.815624 167.14062Q59.64375 167.14062 58.89375 166.48438Q58.159374 165.82812 58.05 164.75ZM65.05 162.76562Q65.05 161.23438 65.3625 160.3125Q65.675 159.375 66.28438 158.875Q66.90938 158.375 67.84688 158.375Q68.53438 158.375 69.05 158.65625Q69.58125 158.9375 69.925 159.46875Q70.26875 159.98438 70.45625 160.73438Q70.64375 161.48438 70.64375 162.76562Q70.64375 164.28125 70.33125 165.20312Q70.03438 166.125 69.40938 166.64062Q68.8 167.14062 67.84688 167.14062Q66.6125 167.14062 65.89375 166.25Q65.05 165.1875 65.05 162.76562ZM66.12813 162.76562Q66.12813 164.875 66.62813 165.57812Q67.12813 166.28125 67.84688 166.28125Q68.58125 166.28125 69.06563 165.57812Q69.56563 164.875 69.56563 162.76562Q69.56563 160.64062 69.06563 159.95312Q68.58125 159.25 67.83125 159.25Q67.1125 159.25 66.675 159.85938Q66.12813 160.64062 66.12813 162.76562ZM72.05 162.76562Q72.05 161.23438 72.3625 160.3125Q72.675 159.375 73.28438 158.875Q73.90938 158.375 74.84688 158.375Q75.53438 158.375 76.05 158.65625Q76.58125 158.9375 76.925 159.46875Q77.26875 159.98438 77.45625 160.73438Q77.64375 161.48438 77.64375 162.76562Q77.64375 164.28125 77.33125 165.20312Q77.03438 166.125 76.40938 166.64062Q75.8 167.14062 74.84688 167.14062Q73.6125 167.14062 72.89375 166.25Q72.05 165.1875 72.05 162.76562ZM73.12813 162.76562Q73.12813 164.875 73.62813 165.57812Q74.12813 166.28125 74.84688 166.28125Q75.58125 166.28125 76.06563 165.57812Q76.56563 164.875 76.56563 162.76562Q76.56563 160.64062 76.06563 159.95312Q75.58125 159.25 74.83125 159.25Q74.1125 159.25 73.675 159.85938Q73.12813 160.64062 73.12813 162.76562ZM79.05 162.76562Q79.05 161.23438 79.3625 160.3125Q79.675 159.375 80.28438 158.875Q80.90938 158.375 81.84688 158.375Q82.53438 158.375 83.05 158.65625Q83.58125 158.9375 83.925 159.46875Q84.26875 159.98438 84.45625 160.73438Q84.64375 161.48438 84.64375 162.76562Q84.64375 164.28125 84.33125 165.20312Q84.03438 166.125 83.40938 166.64062Q82.8 167.14062 81.84688 167.14062Q80.6125 167.14062 79.89375 166.25Q79.05 165.1875 79.05 162.76562ZM80.12813 162.76562Q80.12813 164.875 80.62813 165.57812Q81.12813 166.28125 81.84688 166.28125Q82.58125 166.28125 83.06563 165.57812Q83.56563 164.875 83.56563 162.76562Q83.56563 160.64062 83.06563 159.95312Q82.58125 159.25 81.83125 159.25Q81.1125 159.25 80.675 159.85938Q80.12813 160.64062 80.12813 162.76562Z" fill-rule="nonzero"/><path fill="#000000" d="M58.1125 90.80625L58.1125 89.79063L63.675 89.79063L63.675 90.61875Q62.8625 91.49375 62.05 92.94688Q61.253124 94.38438 60.815624 95.91563Q60.4875 96.99375 60.409374 98.275L59.315624 98.275Q59.33125 97.25938 59.70625 95.82188Q60.096874 94.38438 60.8 93.05625Q61.51875 91.72813 62.33125 90.80625L58.1125 90.80625ZM65.05 96.025L66.15938 95.93125Q66.28438 96.74375 66.72188 97.15Q67.175 97.55625 67.81563 97.55625Q68.56563 97.55625 69.09688 96.97813Q69.62813 96.4 69.62813 95.4625Q69.62813 94.55625 69.1125 94.04063Q68.6125 93.50938 67.78438 93.50938Q67.28438 93.50938 66.8625 93.74375Q66.45625 93.97813 66.22188 94.3375L65.2375 94.2125L66.06563 89.80625L70.34688 89.80625L70.34688 90.80625L66.90938 90.80625L66.45625 93.11875Q67.22188 92.57188 68.06563 92.57188Q69.19063 92.57188 69.95625 93.35313Q70.7375 94.13438 70.7375 95.36875Q70.7375 96.525 70.06563 97.38438Q69.2375 98.41563 67.81563 98.41563Q66.64375 98.41563 65.89375 97.75938Q65.15938 97.10313 65.05 96.025ZM72.05 94.04063Q72.05 92.50938 72.3625 91.5875Q72.675 90.65 73.28438 90.15Q73.90938 89.65 74.84688 89.65Q75.53438 89.65 76.05 89.93125Q76.58125 90.2125 76.925 90.74375Q77.26875 91.25938 77.45625 92.00938Q77.64375 92.75938 77.64375 94.04063Q77.64375 95.55625 77.33125 96.47813Q77.03438 97.4 76.40938 97.91563Q75.8 98.41563 74.84688 98.41563Q73.6125 98.41563 72.89375 97.525Q72.05 96.4625 72.05 94.04063ZM73.12813 94.04063Q73.12813 96.15 73.62813 96.85313Q74.12813 97.55625 74.84688 97.55625Q75.58125 97.55625 76.06563 96.85313Q76.56563 96.15 76.56563 94.04063Q76.56563 91.91563 76.06563 91.22813Q75.58125 90.525 74.83125 90.525Q74.1125 90.525 73.675 91.13438Q73.12813 91.91563 73.12813 94.04063ZM79.05 94.04063Q79.05 92.50938 79.3625 91.5875Q79.675 90.65 80.28438 90.15Q80.90938 89.65 81.84688 89.65Q82.53438 89.65 83.05 89.93125Q83.58125 90.2125 83.925 90.74375Q84.26875 91.25938 84.45625 92.00938Q84.64375 92.75938 84.64375 94.04063Q84.64375 95.55625 84.33125 96.47813Q84.03438 97.4 83.40938 97.91563Q82.8 98.41563 81.84688 98.41563Q80.6125 98.41563 79.89375 97.525Q79.05 96.4625 79.05 94.04063ZM80.12813 94.04063Q80.12813 96.15 80.62813 96.85313Q81.12813 97.55625 81.84688 97.55625Q82.58125 97.55625 83.06563 96.85313Q83.56563 96.15 83.56563 94.04063Q83.56563 91.91563 83.06563 91.22813Q82.58125 90.525 81.83125 90.525Q81.1125 90.525 80.675 91.13438Q80.12813 91.91563 80.12813 94.04063Z" fill-rule="nonzero"/><path fill="#000000" d="M55.01875 29.55L53.971874 29.55L53.971874 22.83125Q53.58125 23.190624 52.95625 23.565624Q52.346874 23.925 51.8625 24.096874L51.8625 23.08125Q52.7375 22.659374 53.39375 22.08125Q54.065624 21.4875 54.346874 20.925L55.01875 20.925L55.01875 29.55ZM58.05 25.315624Q58.05 23.784374 58.3625 22.8625Q58.675 21.925 59.284374 21.425Q59.909374 20.925 60.846874 20.925Q61.534374 20.925 62.05 21.20625Q62.58125 21.4875 62.925 22.01875Q63.26875 22.534374 63.45625 23.284374Q63.64375 24.034374 63.64375 25.315624Q63.64375 26.83125 63.33125 27.753124Q63.034374 28.675 62.409374 29.190624Q61.8 29.690624 60.846874 29.690624Q59.6125 29.690624 58.89375 28.8Q58.05 27.7375 58.05 25.315624ZM59.128124 25.315624Q59.128124 27.425 59.628124 28.128124Q60.128124 28.83125 60.846874 28.83125Q61.58125 28.83125 62.065624 28.128124Q62.565624 27.425 62.565624 25.315624Q62.565624 23.190624 62.065624 22.503124Q61.58125 21.8 60.83125 21.8Q60.1125 21.8 59.675 22.409374Q59.128124 23.190624 59.128124 25.315624ZM65.05 25.315624Q65.05 23.784374 65.3625 22.8625Q65.675 21.925 66.28438 21.425Q66.90938 20.925 67.84688 20.925Q68.53438 20.925 69.05 21.20625Q69.58125 21.4875 69.925 22.01875Q70.26875 22.534374 70.45625 23.284374Q70.64375 24.034374 70.64375 25.315624Q70.64375 26.83125 70.33125 27.753124Q70.03438 28.675 69.40938 29.190624Q68.8 29.690624 67.84688 29.690624Q66.6125 29.690624 65.89375 28.8Q65.05 27.7375 65.05 25.315624ZM66.12813 25.315624Q66.12813 27.425 66.62813 28.128124Q67.12813 28.83125 67.84688 28.83125Q68.58125 28.83125 69.06563 28.128124Q69.56563 27.425 69.56563 25.315624Q69.56563 23.190624 69.06563 22.503124Q68.58125 21.8 67.83125 21.8Q67.1125 21.8 66.675 22.409374Q66.12813 23.190624 66.12813 25.315624ZM72.05 25.315624Q72.05 23.784374 72.3625 22.8625Q72.675 21.925 73.28438 21.425Q73.90938 20.925 74.84688 20.925Q75.53438 20.925 76.05 21.20625Q76.58125 21.4875 76.925 22.01875Q77.26875 22.534374 77.45625 23.284374Q77.64375 24.034374 77.64375 25.315624Q77.64375 26.83125 77.33125 27.753124Q77.03438 28.675 76.40938 29.190624Q75.8 29.690624 74.84688 29.690624Q73.6125 29.690624 72.89375 28.8Q72.05 27.7375 72.05 25.315624ZM73.12813 25.315624Q73.12813 27.425 73.62813 28.128124Q74.12813 28.83125 74.84688 28.83125Q75.58125 28.83125 76.06563 28.128124Q76.56563 27.425 76.56563 25.315624Q76.56563 23.190624 76.06563 22.503124Q75.58125 21.8 74.83125 21.8Q74.1125 21.8 73.675 22.409374Q73.12813 23.190624 73.12813 25.315624ZM79.05 25.315624Q79.05 23.784374 79.3625 22.8625Q79.675 21.925 80.28438 21.425Q80.90938 20.925 81.84688 20.925Q82.53438 20.925 83.05 21.20625Q83.58125 21.4875 83.925 22.01875Q84.26875 22.534374 84.45625 23.284374Q84.64375 24.034374 84.64375 25.315624Q84.64375 26.83125 84.33125 27.753124Q84.03438 28.675 83.40938 29.190624Q82.8 29.690624 81.84688 29.690624Q80.6125 29.690624 79.89375 28.8Q79.05 27.7375 79.05 25.315624ZM80.12813 25.315624Q80.12813 27.425 80.62813 28.128124Q81.12813 28.83125 81.84688 28.83125Q82.58125 28.83125 83.06563 28.128124Q83.56563 27.425 83.56563 25.315624Q83.56563 23.190624 83.06563 22.503124Q82.58125 21.8 81.83125 21.8Q81.1125 21.8 80.675 22.409374Q80.12813 23.190624 80.12813 25.315624Z" fill-rule="nonzero"/><path fill="#000000" d="M191.22995 317.45L190.18307 317.45L190.18307 310.73126Q189.79245 311.09064 189.16745 311.46564Q188.55807 311.825 188.0737 311.9969L188.0737 310.98126Q188.9487 310.5594 189.60495 309.98126Q190.27682 309.3875 190.55807 308.825L191.22995 308.825L191.22995 317.45Z" fill-rule="nonzero"/><path fill="#000000" d="M339.04688 316.4344L339.04688 317.45L333.35938 317.45Q333.35938 317.075 333.48438 316.71564Q333.70312 316.1375 334.17188 315.575Q334.65625 315.0125 335.5625 314.27814Q336.96875 313.1219 337.45312 312.45Q337.95312 311.77814 337.95312 311.1844Q337.95312 310.5594 337.5 310.1375Q337.04688 309.7 336.32812 309.7Q335.5625 309.7 335.10938 310.15314Q334.65625 310.60626 334.64062 311.41876L333.5625 311.3094Q333.67188 310.09064 334.39062 309.46564Q335.125 308.825 336.35938 308.825Q337.59375 308.825 338.3125 309.5125Q339.03125 310.2 339.03125 311.21564Q339.03125 311.73126 338.8125 312.23126Q338.60938 312.71564 338.10938 313.27814Q337.625 313.825 336.5 314.77814Q335.54688 315.575 335.26562 315.8719Q335.0 316.15314 334.82812 316.4344L339.04688 316.4344Z" fill-rule="nonzero"/><path fill="#000000" d="M479.7388 315.2L480.84818 315.10626Q480.97318 315.91876 481.41068 316.325Q481.8638 316.73126 482.50443 316.73126Q483.25443 316.73126 483.78568 316.15314Q484.31693 315.575 484.31693 314.6375Q484.31693 313.73126 483.8013 313.21564Q483.3013 312.6844 482.47318 312.6844Q481.97318 312.6844 481.5513 312.91876Q481.14505 313.15314 480.91068 313.5125L479.9263 313.3875L480.75443 308.98126L485.03568 308.98126L485.03568 309.98126L481.59818 309.98126L481.14505 312.29376Q481.91068 311.7469 482.75443 311.7469Q483.87943 311.7469 484.64505 312.52814Q485.4263 313.3094 485.4263 314.54376Q485.4263 315.7 484.75443 316.5594Q483.9263 317.59064 482.50443 317.59064Q481.33255 317.59064 480.58255 316.9344Q479.84818 316.27814 479.7388 315.2Z" fill-rule="nonzero"/></svg>